<svg width="640" height="250" viewBox="0 0 640 250" fill="none" xmlns="http://www.w3.org/2000/svg">
<rect width="640" height="250" fill="white"/>
<path d="M54 149.6V81H89.084V91.584H67.426V108.93H86.634V119.416H67.426V139.016H89.084V149.6H54Z" fill="black"/>
<path d="M140.783 117.652C140.783 123.532 138.953 127.811 135.295 130.49C131.636 133.103 126.083 134.41 118.635 134.41C116.544 134.41 114.617 134.312 112.853 134.116C112.461 134.9 112.265 135.847 112.265 136.958C112.265 137.35 112.33 137.873 112.461 138.526C114.551 138.33 116.675 138.199 118.831 138.134C120.987 138.003 122.718 137.938 124.025 137.938C126.965 137.938 129.578 138.199 131.865 138.722C134.151 139.245 136.079 140.127 137.647 141.368C139.28 142.544 140.489 144.145 141.273 146.17C142.122 148.195 142.547 150.711 142.547 153.716C142.547 156.983 141.926 159.563 140.685 161.458C139.443 163.418 137.777 164.921 135.687 165.966C133.596 167.011 131.179 167.665 128.435 167.926C125.756 168.253 122.914 168.416 119.909 168.416C118.667 168.416 117.132 168.351 115.303 168.22C113.539 168.155 111.742 168.024 109.913 167.828C108.083 167.697 106.352 167.534 104.719 167.338C103.085 167.142 101.811 166.946 100.897 166.75V156.166C102.138 156.362 103.543 156.558 105.111 156.754C106.744 157.015 108.443 157.211 110.207 157.342C111.971 157.473 113.735 157.571 115.499 157.636C117.263 157.767 118.929 157.832 120.497 157.832C123.829 157.832 126.083 157.473 127.259 156.754C128.5 156.035 129.121 154.925 129.121 153.422C129.121 152.181 128.729 151.135 127.945 150.286C127.226 149.437 125.625 149.012 123.143 149.012C122.228 149.012 120.954 149.045 119.321 149.11C117.753 149.175 116.087 149.273 114.323 149.404C112.624 149.469 110.958 149.567 109.325 149.698C107.691 149.829 106.385 149.959 105.405 150.09C104.425 149.175 103.412 147.771 102.367 145.876C101.321 143.916 100.799 141.629 100.799 139.016C100.799 135.619 101.648 132.777 103.347 130.49C101.648 129.053 100.374 127.256 99.5248 125.1C98.7408 122.879 98.3488 120.135 98.3488 116.868C98.3488 113.079 99.0022 110.073 100.309 107.852C101.615 105.565 103.347 103.834 105.503 102.658C107.659 101.417 110.076 100.633 112.755 100.306C115.499 99.914 118.275 99.718 121.085 99.718C124.351 99.718 127.193 100.11 129.611 100.894L145.683 100.208V110.204L139.411 109.812C140.325 112.164 140.783 114.777 140.783 117.652ZM127.749 116.868C127.749 114.385 127.194 112.687 126.083 111.772C124.972 110.792 122.979 110.302 120.105 110.302C116.577 110.302 114.225 110.857 113.049 111.968C111.938 113.079 111.383 114.973 111.383 117.652C111.383 121.899 113.8 124.022 118.635 124.022C120.072 124.022 121.346 123.957 122.457 123.826C123.633 123.63 124.613 123.271 125.397 122.748C126.181 122.225 126.769 121.507 127.161 120.592C127.553 119.612 127.749 118.371 127.749 116.868Z" fill="black"/>
<path d="M194.472 117.652C194.472 123.532 192.643 127.811 188.984 130.49C185.326 133.103 179.772 134.41 172.324 134.41C170.234 134.41 168.306 134.312 166.542 134.116C166.15 134.9 165.954 135.847 165.954 136.958C165.954 137.35 166.02 137.873 166.15 138.526C168.241 138.33 170.364 138.199 172.52 138.134C174.676 138.003 176.408 137.938 177.714 137.938C180.654 137.938 183.268 138.199 185.554 138.722C187.841 139.245 189.768 140.127 191.336 141.368C192.97 142.544 194.178 144.145 194.962 146.17C195.812 148.195 196.236 150.711 196.236 153.716C196.236 156.983 195.616 159.563 194.374 161.458C193.133 163.418 191.467 164.921 189.376 165.966C187.286 167.011 184.868 167.665 182.124 167.926C179.446 168.253 176.604 168.416 173.598 168.416C172.357 168.416 170.822 168.351 168.992 168.22C167.228 168.155 165.432 168.024 163.602 167.828C161.773 167.697 160.042 167.534 158.408 167.338C156.775 167.142 155.501 166.946 154.586 166.75V156.166C155.828 156.362 157.232 156.558 158.8 156.754C160.434 157.015 162.132 157.211 163.896 157.342C165.66 157.473 167.424 157.571 169.188 157.636C170.952 157.767 172.618 157.832 174.186 157.832C177.518 157.832 179.772 157.473 180.948 156.754C182.19 156.035 182.81 154.925 182.81 153.422C182.81 152.181 182.418 151.135 181.634 150.286C180.916 149.437 179.315 149.012 176.832 149.012C175.918 149.012 174.644 149.045 173.01 149.11C171.442 149.175 169.776 149.273 168.012 149.404C166.314 149.469 164.648 149.567 163.014 149.698C161.381 149.829 160.074 149.959 159.094 150.09C158.114 149.175 157.102 147.771 156.056 145.876C155.011 143.916 154.488 141.629 154.488 139.016C154.488 135.619 155.338 132.777 157.036 130.49C155.338 129.053 154.064 127.256 153.214 125.1C152.43 122.879 152.038 120.135 152.038 116.868C152.038 113.079 152.692 110.073 153.998 107.852C155.305 105.565 157.036 103.834 159.192 102.658C161.348 101.417 163.766 100.633 166.444 100.306C169.188 99.914 171.965 99.718 174.774 99.718C178.041 99.718 180.883 100.11 183.3 100.894L199.372 100.208V110.204L193.1 109.812C194.015 112.164 194.472 114.777 194.472 117.652ZM181.438 116.868C181.438 114.385 180.883 112.687 179.772 111.772C178.662 110.792 176.669 110.302 173.794 110.302C170.266 110.302 167.914 110.857 166.738 111.968C165.628 113.079 165.072 114.973 165.072 117.652C165.072 121.899 167.49 124.022 172.324 124.022C173.762 124.022 175.036 123.957 176.146 123.826C177.322 123.63 178.302 123.271 179.086 122.748C179.87 122.225 180.458 121.507 180.85 120.592C181.242 119.612 181.438 118.371 181.438 116.868Z" fill="black"/>
<path d="M235.645 149.6V81H249.071V138.232H268.965V149.6H235.645Z" fill="black"/>
<path d="M288.067 129.902C288.263 133.495 288.916 135.978 290.027 137.35C291.203 138.657 293.261 139.31 296.201 139.31C298.945 139.31 301.526 139.147 303.943 138.82C306.426 138.493 308.386 138.167 309.823 137.84V148.816C309.039 149.012 308.059 149.241 306.883 149.502C305.707 149.698 304.466 149.861 303.159 149.992C301.852 150.123 300.578 150.221 299.337 150.286C298.161 150.417 297.116 150.482 296.201 150.482C292.673 150.482 289.57 150.188 286.891 149.6C284.212 149.012 281.958 147.803 280.129 145.974C278.365 144.145 277.026 141.597 276.111 138.33C275.262 134.998 274.837 130.588 274.837 125.1C274.837 120.592 275.262 116.737 276.111 113.536C277.026 110.269 278.332 107.623 280.031 105.598C281.795 103.573 283.918 102.103 286.401 101.188C288.884 100.208 291.726 99.718 294.927 99.718C298.651 99.718 301.689 100.208 304.041 101.188C306.458 102.168 308.353 103.605 309.725 105.5C311.097 107.329 312.044 109.616 312.567 112.36C313.155 115.104 313.449 118.207 313.449 121.67V129.902H288.067ZM294.731 110.498C292.706 110.498 291.17 111.217 290.125 112.654C289.145 114.091 288.492 116.639 288.165 120.298H300.905V117.75C300.905 115.333 300.415 113.536 299.435 112.36C298.455 111.119 296.887 110.498 294.731 110.498Z" fill="black"/>
<path d="M364.728 117.652C364.728 123.532 362.899 127.811 359.24 130.49C355.581 133.103 350.028 134.41 342.58 134.41C340.489 134.41 338.562 134.312 336.798 134.116C336.406 134.9 336.21 135.847 336.21 136.958C336.21 137.35 336.275 137.873 336.406 138.526C338.497 138.33 340.62 138.199 342.776 138.134C344.932 138.003 346.663 137.938 347.97 137.938C350.91 137.938 353.523 138.199 355.81 138.722C358.097 139.245 360.024 140.127 361.592 141.368C363.225 142.544 364.434 144.145 365.218 146.17C366.067 148.195 366.492 150.711 366.492 153.716C366.492 156.983 365.871 159.563 364.63 161.458C363.389 163.418 361.723 164.921 359.632 165.966C357.541 167.011 355.124 167.665 352.38 167.926C349.701 168.253 346.859 168.416 343.854 168.416C342.613 168.416 341.077 168.351 339.248 168.22C337.484 168.155 335.687 168.024 333.858 167.828C332.029 167.697 330.297 167.534 328.664 167.338C327.031 167.142 325.757 166.946 324.842 166.75V156.166C326.083 156.362 327.488 156.558 329.056 156.754C330.689 157.015 332.388 157.211 334.152 157.342C335.916 157.473 337.68 157.571 339.444 157.636C341.208 157.767 342.874 157.832 344.442 157.832C347.774 157.832 350.028 157.473 351.204 156.754C352.445 156.035 353.066 154.925 353.066 153.422C353.066 152.181 352.674 151.135 351.89 150.286C351.171 149.437 349.571 149.012 347.088 149.012C346.173 149.012 344.899 149.045 343.266 149.11C341.698 149.175 340.032 149.273 338.268 149.404C336.569 149.469 334.903 149.567 333.27 149.698C331.637 149.829 330.33 149.959 329.35 150.09C328.37 149.175 327.357 147.771 326.312 145.876C325.267 143.916 324.744 141.629 324.744 139.016C324.744 135.619 325.593 132.777 327.292 130.49C325.593 129.053 324.319 127.256 323.47 125.1C322.686 122.879 322.294 120.135 322.294 116.868C322.294 113.079 322.947 110.073 324.254 107.852C325.561 105.565 327.292 103.834 329.448 102.658C331.604 101.417 334.021 100.633 336.7 100.306C339.444 99.914 342.221 99.718 345.03 99.718C348.297 99.718 351.139 100.11 353.556 100.894L369.628 100.208V110.204L363.356 109.812C364.271 112.164 364.728 114.777 364.728 117.652ZM351.694 116.868C351.694 114.385 351.139 112.687 350.028 111.772C348.917 110.792 346.925 110.302 344.05 110.302C340.522 110.302 338.17 110.857 336.994 111.968C335.883 113.079 335.328 114.973 335.328 117.652C335.328 121.899 337.745 124.022 342.58 124.022C344.017 124.022 345.291 123.957 346.402 123.826C347.578 123.63 348.558 123.271 349.342 122.748C350.126 122.225 350.714 121.507 351.106 120.592C351.498 119.612 351.694 118.371 351.694 116.868Z" fill="black"/>
<path d="M409.304 134.802C409.304 137.807 408.814 140.323 407.834 142.348C406.919 144.308 405.58 145.909 403.816 147.15C402.117 148.326 400.059 149.175 397.642 149.698C395.224 150.221 392.546 150.482 389.606 150.482C388.364 150.482 387.09 150.417 385.784 150.286C384.477 150.221 383.203 150.09 381.962 149.894C380.786 149.763 379.675 149.633 378.63 149.502C377.65 149.306 376.833 149.11 376.18 148.914V137.742C377.486 138.069 379.185 138.461 381.276 138.918C383.366 139.31 385.555 139.506 387.842 139.506C390.128 139.506 392.023 139.245 393.526 138.722C395.094 138.199 395.878 137.089 395.878 135.39C395.878 133.887 395.453 132.744 394.604 131.96C393.82 131.176 392.186 130.555 389.704 130.098C384.673 129.183 381.112 127.485 379.022 125.002C376.996 122.519 375.984 119.187 375.984 115.006C375.984 109.518 377.65 105.598 380.982 103.246C384.314 100.894 389.442 99.718 396.368 99.718C397.348 99.718 398.393 99.7833 399.504 99.914C400.614 100.045 401.692 100.208 402.738 100.404C403.783 100.535 404.73 100.698 405.58 100.894C406.494 101.09 407.18 101.253 407.638 101.384V112.556C406.135 112.099 404.469 111.674 402.64 111.282C400.876 110.89 398.654 110.694 395.976 110.694C393.558 110.694 391.827 110.988 390.782 111.576C389.736 112.164 389.214 113.209 389.214 114.712C389.214 115.888 389.736 116.803 390.782 117.456C391.827 118.044 393.428 118.501 395.584 118.828C400.68 119.677 404.24 121.441 406.266 124.12C408.291 126.733 409.304 130.294 409.304 134.802Z" fill="black"/>
<path d="M444.101 149.6V139.212H450.961V91.388H444.101V81H471.247V91.388H464.387V139.212H471.247V149.6H444.101Z" fill="black"/>
<path d="M481.016 149.6V100.6H491.6L492.482 104.422C493.985 102.985 495.716 101.841 497.676 100.992C499.636 100.143 501.825 99.718 504.242 99.718C507.639 99.718 510.351 100.11 512.376 100.894C514.467 101.678 516.067 102.887 517.178 104.52C518.354 106.153 519.138 108.179 519.53 110.596C519.922 113.013 520.118 115.888 520.118 119.22V149.6H507.084V118.926C507.084 115.659 506.594 113.536 505.614 112.556C504.699 111.511 503.36 110.988 501.596 110.988C499.113 110.988 497.251 111.707 496.01 113.144C494.834 114.581 494.181 116.149 494.05 117.848V149.6H481.016Z" fill="black"/>
<path d="M562.004 149.012C560.436 149.469 558.607 149.829 556.516 150.09C554.426 150.351 552.498 150.482 550.734 150.482C547.533 150.482 544.691 150.155 542.208 149.502C539.791 148.849 537.733 147.575 536.034 145.68C534.401 143.785 533.127 141.139 532.212 137.742C531.363 134.279 530.938 129.739 530.938 124.12C530.938 115.365 532.637 109.126 536.034 105.402C539.497 101.613 544.43 99.718 550.832 99.718C552.466 99.718 554.36 99.8813 556.516 100.208C558.738 100.469 560.567 100.763 562.004 101.09V112.556C561.09 112.36 560.24 112.197 559.456 112.066C558.738 111.87 557.986 111.707 557.202 111.576C556.418 111.445 555.569 111.347 554.654 111.282C553.74 111.217 552.662 111.184 551.42 111.184C550.31 111.184 549.297 111.38 548.382 111.772C547.533 112.164 546.814 112.915 546.226 114.026C545.638 115.071 545.181 116.574 544.854 118.534C544.528 120.429 544.364 122.944 544.364 126.08C544.364 130.98 544.92 134.377 546.03 136.272C547.206 138.101 548.938 139.016 551.224 139.016C553.707 139.016 555.765 138.853 557.398 138.526C559.032 138.199 560.567 137.905 562.004 137.644V149.012Z" fill="black"/>
<path d="M570.847 149.6V136.86H585.547V149.6H570.847Z" fill="black"/>
</svg>
